<?xml version="1.0" encoding="UTF-8"?>
<svg id="Capa_1" data-name="Capa 1" xmlns="http://www.w3.org/2000/svg" xmlns:xlink="http://www.w3.org/1999/xlink" viewBox="0 0 568 99.21">
  <defs>
    <style>
      .cls-1 {
        fill: #7caf23;
      }

      .cls-2 {
        fill: #3779ac;
      }

      .cls-2, .cls-3, .cls-4, .cls-5, .cls-6, .cls-7, .cls-8, .cls-9, .cls-10, .cls-11, .cls-12, .cls-13, .cls-14, .cls-15 {
        fill-rule: evenodd;
      }

      .cls-3 {
        fill: #e42b15;
      }

      .cls-4 {
        fill: #196d33;
      }

      .cls-5 {
        fill: #b0cf7b;
      }

      .cls-16 {
        opacity: .15;
      }

      .cls-6 {
        fill: #bdd58d;
      }

      .cls-7 {
        fill: #1e70a3;
      }

      .cls-8 {
        fill: #ccd00d;
      }

      .cls-9 {
        fill: #184a2a;
      }

      .cls-10 {
        fill: #faaf05;
      }

      .cls-11 {
        fill: #f9e823;
      }

      .cls-12 {
        fill: #719ac3;
      }

      .cls-13 {
        fill: #94b4d4;
      }

      .cls-14 {
        fill: #dbeaf7;
      }

      .cls-15 {
        fill: #036;
      }

      .cls-17 {
        clip-path: url(#clippath);
      }
    </style>
    <clipPath id="clippath">
      <path class="cls-1" d="M82.45,58.85c-.62-.31-1.43-.47-2.48-.47s-2.13.14-3.3.29c-1.21.15-2.46.31-3.67.31-.71,0-1.35-.05-1.95-.16-1.23-.23-2.21-1.23-2.5-2.56-.3-1.39.2-2.79,1.29-3.55,1.67-1.17,3.97-1.66,6.19-2.14,3.55-.76,5.92-1.39,6.51-3.26l.04-.12.05-.11c1.46-3.16-1.56-8.1-2.61-8.73-.83-.47-1.69-.7-2.63-.7-1.88,0-3.94.94-5.93,1.84-2.14.98-4.36,1.99-6.64,2h-.06s-.06,0-.06,0c-2.5-.15-4.43-1.37-5.15-3.26-.65-1.71-.16-3.66,1.29-5.1,1.43-1.43,3.28-2.27,5.07-3.08,3.05-1.39,4.94-2.36,5.47-4.85.62-2.93.01-5.72-1.72-7.87-1.71-2.12-4.33-3.33-7.19-3.33-3.78,0-7.68,2.1-10.99,5.92-.88,1.02-1.82,1.54-2.78,1.54-.83,0-2.78-.4-2.88-4.1-.12-4.23-1.96-15.2-8.97-15.2h0c-.5,0-1.03.05-1.58.16-3.59.69-6.03,2.18-7.23,4.43-2.16,4.02-.26,9.98,1.07,13.17,1.91,4.58,1.57,7.79-.98,9.53-12.95,8.83-16.77,17.11-14.07,30.55,1.18,5.89,4.2,9.13,7.39,12.57,4.27,4.59,8.66,9.34,7.25,19.86,4.58,1.86,9.58,2.9,14.81,2.9.74,0,1.48-.04,2.21-.08.02-1.41.02-4.52.02-5.34.03-5.51.06-11.76,5.07-11.76,3.07,0,4.09,2.35,4.48,3.23v.02s.02.03.02.03c.34.84.62,1.68.89,2.5,1.03,3.14,1.85,5.61,5.37,6.61.51.15,1.04.22,1.55.22,2.94,0,5.31-2.45,5.81-3.83l.03-.09.04-.09c1.46-3.04-.73-7.81-2.3-10.2-1.69-2.13-1.58-3.7-1.18-4.65.29-.69,1.1-1.88,3.27-2.08l.24-.02.24.04c1.6.25,3.01,1.06,4.38,1.84,1.48.85,2.88,1.66,4.34,1.66.07,0,.13,0,.2,0,4.35-.21,6.63-3.7,7.25-6.63.61-2.85-.08-6.38-2.97-7.84Z"/>
    </clipPath>
  </defs>
  <g>
    <path class="cls-10" d="M0,55.71C0,31.71,19.5,12.21,43.5,12.21s43.5,19.5,43.5,43.5-19.5,43.5-43.5,43.5S0,79.71,0,55.71Z"/>
    <g>
      <path class="cls-14" d="M4,55.71c0-21.9,17.7-39.6,39.5-39.6s39.6,17.7,39.6,39.6-17.7,39.6-39.6,39.6S4,77.51,4,55.71Z"/>
      <g class="cls-16">
        <path class="cls-12" d="M83.1,55.71c0-7.3-2-14.1-5.4-19.9-9.2,5.1-17.1,11.8-24.4,17.7-2.6-12.2-.7-26.6-9.5-37.4h-.3c-21.8,0-39.5,17.7-39.5,39.6s17.7,39.6,39.6,39.6,39.5-17.8,39.5-39.6Z"/>
        <path class="cls-2" d="M8.7,74.51c6.7,12.3,19.8,20.7,34.8,20.7,21.9,0,39.6-17.7,39.6-39.6,0-4.4-.7-8.6-2-12.5-9.8,6.8-17.5,15.3-22.8,23.7-2,2.6-6.5,1.1-9-.4-7-13.5-2.5-29.3-8.5-43.2-1.2-2-2.3-4.5-3.9-6.6-13.6,2.3-24.8,11.5-30,23.9.6,10,4.2,20.6,5.4,29.5.1,2-1.5,3.5-3.6,4.5Z"/>
        <path class="cls-13" d="M60.5,91.41c-1.2-1-2.7-1.8-4.5-2.4-3.1-1.7-9.9-.2-9.9-3.8-1.8-4.5-7.1-8-12.2-11.4-6.8-2.9-16.3-2.5-22.1,1.3-.7.4-1.4.8-2,1.2,6.9,11.4,19.5,19,33.8,19,6,0,11.8-1.4,16.9-3.9Z"/>
        <path class="cls-12" d="M55,92.51c.3.3.6.5.8.8-3.9,1.3-8,2-12.3,2-5.1,0-10-1-14.5-2.8,8.4-1.8,17.4-2.4,26,0Z"/>
        <path class="cls-7" d="M61.2,31.91c-7.3,1.1-14.2,4.5-19.9,10-6.3,3.1-9.3,11.5-15.8,12.9.6-4.8,2.4-8.9,3.2-13.4,2.3-6.9,4.7-15.7,4.3-23.8C16.3,22.21,4,37.51,4,55.71c0,21.5,17.2,39,38.5,39.5,1.4-1.2,2.7-2.6,3.7-4.4,2.2-4.5-2.6-7.5-4.7-10.4-2.9-1.6-6.5-2.9-9.7-2,9.1-8.4,21.5-9.3,30.4-18.1,4.9-7,9.7-14.5,8.1-23.8-1.8-3.7-5.7-4.8-9.1-4.6Z"/>
        <path class="cls-13" d="M52.5,36.81c-11,4.5-17.7,15.9-27.4,23.1-1.6.9-3.2,3-4.9,1.4.2-1.8-.8-5.4.8-7,2.6-11.6,8.2-23.5,8.3-35.5-7,2.7-13.1,7.4-17.5,13.3-.3,1.3-.5,2.7-.7,4-.6,5.2.6,10.2-1.8,14.3-1,.5-2.4,1.4-3.5.2-.4-1.7-.5-3.4-.5-5.1-.9,3.3-1.3,6.7-1.3,10.2,0,17.7,11.6,32.7,27.7,37.7.7-.2,1.4-.4,2.2-.7,2.4,0,4.8-2.1,7.3-3.6,1.8-1.8,0-4.1-1.2-5.7-5-7.6-11.5.8-17,.3-3.6-2.3,2.6-4.8,2.6-8.2,3.9-2.3,5.9-5,9.9-7.3,8.7-2.3,17.2-7,24.3-13.6,3.8-5.8,8.3-12.8,5.5-19.8-4.3-3.2-9,0-12.8,2Z"/>
        <path class="cls-2" d="M7.4,67.41c-.5.2-1,.5-1.4.9.5,1.4,1,2.8,1.6,4.1,1.8-.7,3.9-1.1,4-3.7-.3-2.2-2.8-.9-4.2-1.3Z"/>
        <path class="cls-12" d="M12.5,79.51c-.1.1-.2.2-.4.3.8,1.1,1.7,2.1,2.7,3.1.8-.6,1.5-1.3,2-2.3-1-.9-2.7-1.3-4.3-1.1Z"/>
      </g>
    </g>
    <path d="M83.32,57.14c-3.37-1.71-8.32.45-11.91-.21-1.06-.2-1.41-1.99-.45-2.66,3.57-2.5,11.86-1.43,13.42-6.39,1.93-4.2-1.65-10.2-3.4-11.2-5.72-3.26-11.24,2.86-16.16,2.88-3.57-.21-4.63-3.08-2.62-5.1,3.2-3.2,9.85-3.25,11.06-8.89,2.48-11.62-11.98-19.91-23.23-6.93-.97,1.12-2.22,1.62-2.3-1.36-.18-6.47-3.08-18.75-12.83-16.87-12.57,2.42-10.45,13.29-7.57,20.22,1.65,3.97,1.28,6.14-.29,7.21-13.78,9.39-17.68,18.51-14.87,32.51,2.93,14.59,16.61,14.78,14.69,31.25,5.06,2.37,10.7,3.7,16.65,3.7,1.38,0,2.73-.09,4.07-.23.24-6.77-.71-15.03,3.24-15.03,1.52,0,2.17.83,2.72,2.09,1.61,4,1.92,8.66,7.51,10.24,4.83,1.37,8.81-2.38,9.68-4.8,2-4.16-.96-9.86-2.47-12.16-1.59-1.97-1.43-3.5.72-3.7,2.94.45,5.66,3.69,9.3,3.51,9.74-.48,12.46-14.34,5.05-18.09Z"/>
    <g>
      <path class="cls-1" d="M82.45,58.85c-.62-.31-1.43-.47-2.48-.47s-2.13.14-3.3.29c-1.21.15-2.46.31-3.67.31-.71,0-1.35-.05-1.95-.16-1.23-.23-2.21-1.23-2.5-2.56-.3-1.39.2-2.79,1.29-3.55,1.67-1.17,3.97-1.66,6.19-2.14,3.55-.76,5.92-1.39,6.51-3.26l.04-.12.05-.11c1.46-3.16-1.56-8.1-2.61-8.73-.83-.47-1.69-.7-2.63-.7-1.88,0-3.94.94-5.93,1.84-2.14.98-4.36,1.99-6.64,2h-.06s-.06,0-.06,0c-2.5-.15-4.43-1.37-5.15-3.26-.65-1.71-.16-3.66,1.29-5.1,1.43-1.43,3.28-2.27,5.07-3.08,3.05-1.39,4.94-2.36,5.47-4.85.62-2.93.01-5.72-1.72-7.87-1.71-2.12-4.33-3.33-7.19-3.33-3.78,0-7.68,2.1-10.99,5.92-.88,1.02-1.82,1.54-2.78,1.54-.83,0-2.78-.4-2.88-4.1-.12-4.23-1.96-15.2-8.97-15.2h0c-.5,0-1.03.05-1.58.16-3.59.69-6.03,2.18-7.23,4.43-2.16,4.02-.26,9.98,1.07,13.17,1.91,4.58,1.57,7.79-.98,9.53-12.95,8.83-16.77,17.11-14.07,30.55,1.18,5.89,4.2,9.13,7.39,12.57,4.27,4.59,8.66,9.34,7.25,19.86,4.58,1.86,9.58,2.9,14.81,2.9.74,0,1.48-.04,2.21-.08.02-1.41.02-4.52.02-5.34.03-5.51.06-11.76,5.07-11.76,3.07,0,4.09,2.35,4.48,3.23v.02s.02.03.02.03c.34.84.62,1.68.89,2.5,1.03,3.14,1.85,5.61,5.37,6.61.51.15,1.04.22,1.55.22,2.94,0,5.31-2.45,5.81-3.83l.03-.09.04-.09c1.46-3.04-.73-7.81-2.3-10.2-1.69-2.13-1.58-3.7-1.18-4.65.29-.69,1.1-1.88,3.27-2.08l.24-.02.24.04c1.6.25,3.01,1.06,4.38,1.84,1.48.85,2.88,1.66,4.34,1.66.07,0,.13,0,.2,0,4.35-.21,6.63-3.7,7.25-6.63.61-2.85-.08-6.38-2.97-7.84Z"/>
      <g class="cls-17">
        <g>
          <path class="cls-6" d="M49.98,12.08c-4.45-.23-10.25,7.3-13.91,16.62-2.32,5.92-3.58,11.58-3.17,19.81.02.51,2.68,2.1,2.9,1.8,4.09-5.7,10.07-4.53,13.66-2.17,4.15,2.72,6.55,9.48,6.04,14.79-.7,7.29-.45,9.61,1.66,11.9,5.26,5.71,10.16,2.14,14.16.41,1.43-.62,1.29-1.91,2.53-2.68,6.51-4.07,8.71-10.73,8.75-15.98.02-1.97.08-4.72-1.32-7.43-.23-.45-8.2,1.38-8.51-.18-.51-2.49,5.4-8.22,8.31-11.38,2.03-2.2-10.63-1.27-11.4-4.41-.5-2.06,3.67-3.4,4.23-7.71.33-2.54-.62-7.41-2.59-6.63-1.36.54-5.98,5.23-10.61,4.99-6.1-.31-5.5-11.48-10.74-11.75Z"/>
          <path class="cls-5" d="M35.6,46.81c4.75-5.51,9.74-4.44,14.48-1.72,6.73,3.86,8.26,12.96,7.41,18.22-2.05,12.66,7.33,13.23,10.31,11.43,5.71-3.46,14.16-11.18,11.89-18.21-1.01-3.13-7.17-.27-8.64-4.24-.85-2.3-.96-3.71-.75-4.28,2.3-6.26,9.77-10.18,9.44-12.27-.34-2.19-8.76-4.05-16.31-.41-5.5,2.65-10.64,7.67-11.63,7.22-4.62-2.12,4.97-20.6-.62-24.46-1.29-.89-.58-.23-1.47-.14-8.88.85-14.97,21.58-14.11,28.87Z"/>
          <path class="cls-8" d="M26.42,16.69c1.09.51,2.49-2.31,5.65-2.8,2.55-.4,8.85,1.78,11.05,5.52,3.54,6-1.07,8.84,2.67,16.3,2.14,4.26,6.71,7.13,14,2.9,4.69-2.72,8.7-5.81,10.01-10.1.12-.39,1.82-7.28-1.1-10.45-1.12-1.22-2.84-1.21-4.47-1.56-1.4-.3-2.53-.71-2.51-1.05.03-.43,2.2-2.29,1.95-2.78-.54-1.08-14.78,4.09-16.17,3.01-3.89-3-1.32-9.67-6.32-13.07-2.76-1.89-6.53-1.69-9.09-.44-6.65,3.23-7.56,13.65-5.68,14.53Z"/>
          <path class="cls-6" d="M26.09,13.17c1.25-.44,3.81-2.65,5.21-2.77.67-.05,8.94.97,12.52,5.88,1.39,1.9,2.56,4.63,2.94,6.57.76,3.92-1.11,8.91,1.8,12.22,2.54,2.9,8.15,2.84,11.94.19.93-.65,3.59-1.2,5.37-4.36.36-.65,4.06-6.83,1.11-10.17-1.76-1.99-5.49-.25-7.36-2.18-1.8-1.86.34-5.41-1.2-8.12-2.1-3.71-9.44-4.21-13.61-1.71-.93.56-2.02,1.31-3.03,1.61-.69.2-1.56-1.23-1.55-1.86.07-3,1.09-5.13.58-6.62-.77-2.25-8.22-3.13-12.14,1.22-2.89,3.19-4.05,10.61-2.57,10.09Z"/>
        </g>
      </g>
    </g>
    <g>
      <ellipse cx="39.77" cy="52.55" rx="15.69" ry="17.53" transform="translate(-18.89 82.59) rotate(-80)"/>
      <g>
        <path class="cls-11" d="M24.55,49c-.07.28-.15.55-.2.83-1.21,6.88,3.42,13.57,10.61,15.9.46-4.36,1.39-11.36,3.12-17.3.19-.64.39-1.31.64-2-6.25-.61-11.41,1.25-14.17,2.57Z"/>
        <path class="cls-4" d="M39.67,44.14c.29-.61.62-1.25,1.01-1.9.69-1.16,1.48-2.26,2.36-3.3-.28-.06-.55-.14-.83-.19-6.93-1.22-13.52,1.84-16.45,7.13,3.34-1.27,8.25-2.45,13.92-1.75Z"/>
        <path class="cls-9" d="M44.2,45.08c4.82,1.45,8.45,3.95,11.07,6.39-.65-5.12-4.39-9.67-9.72-11.76-1.07,1.15-2.02,2.41-2.81,3.75-.22.37-.42.74-.6,1.1.68.15,1.37.32,2.06.53Z"/>
        <path class="cls-3" d="M43.51,47.37c-.8-.24-1.59-.42-2.37-.57-.3.8-.55,1.57-.76,2.31-1.72,5.92-2.64,13-3.08,17.23.01,0,.02,0,.03,0,8.51,1.5,16.5-3.46,17.85-11.08.03-.14.03-.28.05-.43-2.42-2.68-6.24-5.82-11.73-7.47Z"/>
      </g>
      <ellipse cx="31.79" cy="52.42" rx="1.84" ry="2" transform="translate(-28.56 63.19) rotate(-68.88)"/>
      <ellipse cx="45.65" cy="56.02" rx="1.84" ry="2" transform="translate(-17.45 91.25) rotate(-80)"/>
      <path d="M31.88,70.94c2.13,4.58,7.7,5.79,10.88,1.54.37-.54,1.26-.1,1.06.51-1.38,4.82-7.96,5.81-11.13,2.13-.67-.61-2.78-4.19-1.43-4.52.27-.05.52.1.62.33h0Z"/>
    </g>
  </g>
  <path class="cls-10" d="M568,84.81h-33.2V26.61h8.5v49.7h24.7v8.5ZM528.7,84.81h-38.7V26.61h37.3v7.9h-28.7v14.5h20.9v8h-20.9v19.8h30.1v8ZM481.5,26.61l-21.5,58.2h-8l-21.6-58.1h8.7l16.9,45.5,16.7-45.6s8.8,0,8.8,0ZM422.6,62.71l-8.7-23.6-8.7,23.6h17.4ZM439.4,84.81h-8.8l-5.1-13.9h-23.3l-5.2,13.9h-8.8l21.6-58.1h8l21.6,58.1ZM368.1,43.41c0-2.3-.8-4.3-2.5-5.9-1.7-1.6-3.6-2.4-6-2.4h-10.1v16.7h10.1c2.3,0,4.3-.8,6-2.5,1.7-1.7,2.5-3.7,2.5-5.9ZM384.8,84.81h-10.6l-17.1-25.1h-7.5v25.1h-8.6V26.61h18.7c4.6,0,8.6,1.6,11.9,4.8,3.3,3.2,4.9,7.1,4.9,11.7,0,3.3-.9,6.3-2.7,9-1.8,2.7-4.2,4.7-7.2,6l18.2,26.7ZM334.6,34.51h-18.3v50.3h-8.6v-50.3h-18.7v-7.9h45.6v7.9Z"/>
  <path class="cls-15" d="M277.8,26.61v58.2h-15.6V26.61h15.6ZM251.1,27.71v13.8c-10.4-.6-31.7-2.1-31.7,13.3,0,12.6,5.9,15.1,16.4,15.3v-18.2h15.3v32.1c-13.4,1.6-30,1.5-38.4-6.7-5.8-5.6-8.5-13.6-8.5-21.7s2-14.7,7.8-20.4c9.6-9.5,25.8-9.4,39.1-7.5ZM119.6,26.61h-15.8v37.5c0,6.1,1,11.2,4.1,15,4.3,5.4,10.9,6.2,20.5,5.3v-13.4c-4.2,0-8.7.9-8.7-6.9V26.61h-.1ZM165.2,41.21c-4.1,0-7.6,1.4-10.6,4.3-2.9,2.8-4.4,6.3-4.4,10.3s1.5,7.3,4.4,10.1c2.9,2.8,6.5,4.3,10.6,4.3s7.6-1.4,10.6-4.3c2.9-2.8,4.3-6.2,4.3-10.1s-1.4-7.4-4.3-10.3c-2.9-2.9-6.4-4.3-10.6-4.3ZM165.1,26.61c8.4,0,15.5,2.8,21.3,8.5,5.9,5.7,8.8,12.5,8.8,20.6s-2.9,14.9-8.8,20.5c-5.9,5.7-13,8.5-21.3,8.5s-15.4-2.9-21.2-8.5c-5.9-5.6-8.9-12.5-8.9-20.5s3-14.9,8.9-20.6c5.8-5.6,12.9-8.5,21.2-8.5Z"/>
</svg>