<?xml version="1.0" encoding="utf-8"?>
<!-- Generator: Adobe Illustrator 22.0.1, SVG Export Plug-In . SVG Version: 6.00 Build 0)  -->
<svg version="1.1" id="Capa_1" xmlns="http://www.w3.org/2000/svg" xmlns:xlink="http://www.w3.org/1999/xlink" x="0px" y="0px"
	 viewBox="0 0 570 100" style="enable-background:new 0 0 570 100;" xml:space="preserve">
<style type="text/css">
	.st0{fill-rule:evenodd;clip-rule:evenodd;fill:#FAAF05;}
	.st1{fill-rule:evenodd;clip-rule:evenodd;fill:#DBEAF7;}
	.st2{opacity:0.15;}
	.st3{fill-rule:evenodd;clip-rule:evenodd;fill:#719AC3;}
	.st4{fill-rule:evenodd;clip-rule:evenodd;fill:#3779AC;}
	.st5{fill-rule:evenodd;clip-rule:evenodd;fill:#94B4D4;}
	.st6{fill-rule:evenodd;clip-rule:evenodd;fill:#1E70A3;}
	.st7{fill-rule:evenodd;clip-rule:evenodd;fill:#7CAF23;}
	.st8{fill-rule:evenodd;clip-rule:evenodd;fill:#BDD58D;}
	.st9{fill-rule:evenodd;clip-rule:evenodd;fill:#B0CF7B;}
	.st10{fill-rule:evenodd;clip-rule:evenodd;fill:#CCD00D;}
	.st11{fill-rule:evenodd;clip-rule:evenodd;}
	.st12{fill-rule:evenodd;clip-rule:evenodd;fill:#016B2C;}
	.st13{fill-rule:evenodd;clip-rule:evenodd;fill:#014828;}
	.st14{fill-rule:evenodd;clip-rule:evenodd;fill:#F9E822;}
	.st15{fill-rule:evenodd;clip-rule:evenodd;fill:#E32C1A;}
	.st16{fill-rule:evenodd;clip-rule:evenodd;fill:#003366;}
</style>
<g>
	<path class="st0" d="M1,55.9c0-24,19.5-43.5,43.5-43.5c24,0,43.5,19.5,43.5,43.5c0,24-19.5,43.5-43.5,43.5C20.5,99.4,1,79.9,1,55.9
		z"/>
	<g>
		<path class="st1" d="M5,55.9C5,34,22.7,16.3,44.5,16.3c21.9,0,39.6,17.7,39.6,39.6c0,21.8-17.7,39.6-39.6,39.6
			C22.7,95.5,5,77.7,5,55.9z"/>
		<g class="st2">
			<path class="st3" d="M84.1,55.9c0-7.3-2-14.1-5.4-19.9c-9.2,5.1-17.1,11.8-24.4,17.7c-2.6-12.2-0.7-26.6-9.5-37.4
				c-0.1,0-0.2,0-0.3,0C22.7,16.3,5,34,5,55.9c0,21.8,17.7,39.6,39.6,39.6C66.4,95.5,84.1,77.7,84.1,55.9z"/>
			<path class="st4" d="M9.7,74.7c6.7,12.3,19.8,20.7,34.8,20.7c21.9,0,39.6-17.7,39.6-39.6c0-4.4-0.7-8.6-2-12.5
				C72.3,50.1,64.6,58.6,59.3,67c-2,2.6-6.5,1.1-9-0.4c-7-13.5-2.5-29.3-8.5-43.2c-1.2-2-2.3-4.5-3.9-6.6
				c-13.6,2.3-24.8,11.5-30,23.9c0.6,10,4.2,20.6,5.4,29.5C13.4,72.2,11.8,73.7,9.7,74.7z"/>
			<path class="st5" d="M61.5,91.6c-1.2-1-2.7-1.8-4.5-2.4c-3.1-1.7-9.9-0.2-9.9-3.8c-1.8-4.5-7.1-8-12.2-11.4
				c-6.8-2.9-16.3-2.5-22.1,1.3c-0.7,0.4-1.4,0.8-2,1.2c6.9,11.4,19.5,19,33.8,19C50.6,95.5,56.4,94.1,61.5,91.6z"/>
			<path class="st3" d="M56,92.7c0.3,0.3,0.6,0.5,0.8,0.8c-3.9,1.3-8,2-12.3,2c-5.1,0-10-1-14.5-2.8C38.4,90.9,47.4,90.3,56,92.7z"
				/>
			<path class="st6" d="M62.2,32.1c-7.3,1.1-14.2,4.5-19.9,10C36,45.2,33,53.6,26.5,55c0.6-4.8,2.4-8.9,3.2-13.4
				c2.3-6.9,4.7-15.7,4.3-23.8C17.3,22.4,5,37.7,5,55.9c0,21.5,17.2,39,38.5,39.5c1.4-1.2,2.7-2.6,3.7-4.4c2.2-4.5-2.6-7.5-4.7-10.4
				c-2.9-1.6-6.5-2.9-9.7-2c9.1-8.4,21.5-9.3,30.4-18.1c4.9-7,9.7-14.5,8.1-23.8C69.5,33,65.6,31.9,62.2,32.1z"/>
			<path class="st5" d="M53.5,37c-11,4.5-17.7,15.9-27.4,23.1c-1.6,0.9-3.2,3-4.9,1.4c0.2-1.8-0.8-5.4,0.8-7
				C24.6,42.9,30.2,31,30.3,19c-7,2.7-13.1,7.4-17.5,13.3c-0.3,1.3-0.5,2.7-0.7,4c-0.6,5.2,0.6,10.2-1.8,14.3
				c-1,0.5-2.4,1.4-3.5,0.2c-0.4-1.7-0.5-3.4-0.5-5.1C5.4,49,5,52.4,5,55.9c0,17.7,11.6,32.7,27.7,37.7c0.7-0.2,1.4-0.4,2.2-0.7
				c2.4,0,4.8-2.1,7.3-3.6c1.8-1.8,0-4.1-1.2-5.7C36,76,29.5,84.4,24,83.9c-3.6-2.3,2.6-4.8,2.6-8.2c3.9-2.3,5.9-5,9.9-7.3
				c8.7-2.3,17.2-7,24.3-13.6C64.6,49,69.1,42,66.3,35C62,31.8,57.3,35,53.5,37z"/>
			<path class="st4" d="M8.4,67.6c-0.5,0.2-1,0.5-1.4,0.9c0.5,1.4,1,2.8,1.6,4.1c1.8-0.7,3.9-1.1,4-3.7C12.3,66.7,9.8,68,8.4,67.6z"
				/>
			<path class="st3" d="M13.5,79.7c-0.1,0.1-0.2,0.2-0.4,0.3c0.8,1.1,1.7,2.1,2.7,3.1c0.8-0.6,1.5-1.3,2-2.3
				C16.8,79.9,15.1,79.5,13.5,79.7z"/>
		</g>
	</g>
	<path d="M84.3,57.5c-0.7-0.3-1.7-0.5-3.2-0.5c-1.3,0-2.8,0.1-4.1,0.2c-1.2,0.1-2.2,0.2-3.1,0.2c-0.7,0-2.3,0-2.5-1.2
		c-0.2-2,2.1-2.4,4.9-3c3.4-0.7,7.7-1.5,9.2-4.9c1.9-4.2-2-10.4-3.4-11.2c-1-0.6-2.2-0.9-3.5-0.9c-2.8,0-5.5,1.3-7.1,2.1
		c-0.3,0.2-0.6,0.3-0.8,0.4c-1.8,0.8-3.4,1.2-4.7,1.2c-1.9,0-2.7-0.9-3-1.5c-0.6-1-0.4-2.5,0.5-3.8c0.8-1.2,2.4-1.9,4.2-2.7
		c2.7-1.1,5.8-2.4,6.8-6.1c0.8-3.1,0.1-6.5-1.9-9.1c-2.2-2.8-5.6-4.4-9.4-4.4c-0.3,0-0.6,0-0.9,0c-4,0.2-7,2.3-9,3.6
		c-1.3,0.9-2.1,1.4-2.9,1.4c-0.9,0-1.5-0.7-1.6-2.1c-1-9.3-5-14.8-10.9-14.8c-1.1,0-2.2,0.2-3.3,0.6c-5.7,1.9-8.2,5.5-8,11.6
		c0.1,3,1.1,5.9,1.9,8.2c1.1,3.2,1.9,5.7,0.1,6.9l-0.5,0.3c-7.3,5.2-11.8,9.9-13.5,14.1c-2,5.1-3.7,12.9-0.6,21.8
		c1.6,4.6,4.6,7.7,7.4,10.8c3.3,3.6,6.5,7,6.5,12.1c0,1-0.1,2.8-0.3,4.7c5.1,2.4,10.8,3.8,16.8,3.8c1.4,0,2.7-0.1,4-0.2
		c0-5.5,0.1-9.8,0.5-11.7c0.3-1.4,1.6-3,3.1-3c0.7,0,1.7,0.4,2.5,2.1c0.3,0.7,0.6,1.6,0.8,2.5c1,3.3,2.1,7,6.7,7.8
		c0.5,0.1,1,0.1,1.4,0.1c4.7,0,6.9-4.7,7.8-6.7l0.1-0.1c2-4.2-0.5-8-2.1-10.3c-0.9-1.4-1.5-2.3-0.8-3c0.4-0.5,1-0.7,1.6-0.7
		c0.9,0,1.8,0.6,3,1.3c1.4,0.8,3.1,1.9,5.3,2.2c0.3,0,0.6,0.1,0.8,0.1c4,0,7.8-3.9,8.7-6.5C89.8,63.7,87.5,59.2,84.3,57.5z"/>
	<path class="st7" d="M83,71.9c-1.7,1.2-3.5,1.9-5.6,1.2c-3.4-1.1-6.2-4.6-10.1-2.6c-1.1,0.6-1.6,2-1.7,3.3
		c0.7,4.2,6.7,6.8,3.6,11.5c-1.3,2.7-4.2,5.2-7.1,5.1c-4.3-1.1-3.9-6.6-5.9-9.6c-2.8-4.3-7.1-3.1-8.6,0.4c-1.2,2.5-1.3,6.5-1.3,14
		c-0.6,0-1.1,0-1.7,0c-5.2,0-10.1-1-14.6-2.8c0.2-1.6,0.5-3.3,0.6-4.8c-0.1-11.2-8.3-12.1-14-24.5c-3-6.5-2.2-15.2,0.9-21.4
		c3.3-5.1,8.6-9.9,13.8-13.3c2.8-1.9-1.7-8.5-2.2-16.7c-0.4-4.9,3-7.3,7.3-8.5c3.6-0.9,7.6,1.5,8.3,5.3c0.8,4.1,1.5,7.2,3.2,11.9
		c0.6,3.2,7.1-4.6,14-5.4c6.9-0.9,12.6,4.5,10,10.8c-1.6,3.9-8.6,3.5-10.7,8.3c-1.5,2.4-0.4,4.9,0.7,7c2.5,3,6.2,0.2,9.3-0.1
		c3.5-0.8,7.6-4.6,10.8-0.7c1.6,2.2,2.4,4.7,1.3,7.3c-3.9,5.6-14.8,0.2-14.4,10c3.8,4.8,9.4,0.2,14.4,2.2c2.2,0.6,2.6,3.1,3,5
		C86.6,68,84.8,70.1,83,71.9z"/>
	<path class="st8" d="M83.3,59.8c-5-1.9-10.5,2.6-14.3-2.2c-0.3-8.5,7.8-5.6,12.5-8.3c-4.9,0.3-9.8,1.9-7-2.6c2-3.2,4.1-5.4,6.3-7.5
		c-3-1.9-6.5,1.2-9.6,1.8c-3.1,0.2-6.8,3-9.3,0.1c-1.1-2.1-2.2-4.6-0.7-7c2.2-4.8,9.2-4.4,10.7-8.3c1-2.3,0.8-4.5-0.2-6.4
		c-6.1,4.1-10.6,14.7-17.1,16.6c0.3-5.5,1.1-10.8,1.1-16.4c-0.2-0.6-0.4-1.4-0.5-2.1c-4,2.3-6.9,5-7.3,2.9c-0.7-2-1.3-3.7-1.7-5.4
		c-1.5,1-2.9,2.5-4.1,4.3c-5.2,7.5-9.1,18.9-8.2,29.4c0.9,1,1.9,1.7,2.9,1.8c4.2-6.2,11.6-4.3,14.6-1.4c6.5,6.4,5.1,12.7,4.8,19.4
		c-0.3,7.1,5.3,10.3,10.3,9.4c0.3-0.1,0.6-0.3,1-0.4c-0.8-1.1-1.6-2.3-1.8-3.7c0-1.4,0.6-2.7,1.7-3.3c3.1-1.6,5.5,0.3,8.1,1.7
		C82.3,67.6,82.8,61.9,83.3,59.8z"/>
	<path class="st9" d="M72.4,24.5c-0.6,0.4-1.3,0.9-1.9,1.4C69.8,27,69,28,68.2,29.1c1.7-0.8,3.1-1.6,3.8-3.2
		C72.1,25.4,72.3,25,72.4,24.5z M73.7,71.3c3.1-3,6.9-5.9,7.4-12c-4.4-0.4-8.9,2.4-12.2-1.7c-0.1-3.4,1.1-4.9,2.9-5.8
		c-0.4-0.8-0.6-1.9-0.5-3.6c1.8-4.4,4.9-6.8,7.6-9.5c-2.6-0.2-5.3,1.9-7.8,2.4c-3.1,0.2-6.8,3-9.3,0.1c-0.6-1.2-1.2-2.5-1.4-3.8
		c-2.4,2.2-4.9,4.1-7.4,5.4c-0.9-0.2-1.3-1.2-1.5-2.5c0.8-7,2.2-14.3,1.1-20.6c-0.1-0.1-0.2-0.2-0.3-0.3c-2.5,1.6-4.2,2.6-4.4,1.1
		l-0.3-0.9c-1.1,0.7-2.2,1.6-3,2.4c-4.5,6.4-8.5,15.7-8,25c6.9-8.9,19.2-1.4,21.5,8.1c1.6,6.6-0.9,11.5,0.8,16.2
		c1.8,3.4,4.5,4.6,7.4,4.3c-0.3-0.5-0.5-1.1-0.6-1.7c0-1.4,0.6-2.7,1.7-3.3C69.7,69.3,71.7,70.2,73.7,71.3z"/>
	<path class="st10" d="M29.6,15.8c1.7-1.4,3.7-2.1,5.5-1.7c4,1.2,8.7,2.4,10.4,8.9c0.5,3-1.2,5.8,0.1,10c1.7,5.7,5.7,8.4,10.4,7.8
		c0.9-0.3,1.9-0.8,2.6-0.7c0.7-0.4,1.4-0.8,2.2-1.3c-0.5-1.5-0.6-3.1,0.4-4.7c1.9-4.3,7.6-4.4,10-7.1c0.3-2.8,0.3-5.5-0.7-7.7
		c-1.7-3.2-5.5-1.8-7.8-3.6c0.2-0.3,0.3-0.5,0.5-0.8c-0.4,0-0.8,0-1.3,0.1c-6.9,0.9-13.5,8.6-14,5.4c-1.7-4.7-2.5-7.8-3.2-11.9
		c-0.7-3.7-4.7-6.1-8.3-5.3C32,4.5,28.6,7,29,11.8C29.1,13.2,29.3,14.6,29.6,15.8z"/>
	<path class="st8" d="M68,20.9c-2.7-2.3-8.6,0.9-8.1-5.4c-6.1,1.9-11.4,7.8-11.9,5c-1.6-4.4-2.4-7.3-3.1-11
		c-0.7,0.4-1.4,0.8-2.2,1.1c-0.8-0.2-1.2-1-1.5-2c0.1-1.4,0.3-2.8,0.5-4.2c-1.5-1-3.5-1.4-5.4-1C32,4.5,28.6,7,29,11.8l0,0.5
		c1.1-0.7,2.2-1.4,3.3-1.7c6,0.9,12.4,2.7,15,10.7c1.7,5.4-0.4,8.5,1.3,12.5c2.7,4.4,7.6,4.4,11.8,2.4l0.1-0.1
		c0.1-0.7,0.3-1.4,0.7-2c1.2-2.8,4-3.8,6.5-4.9c0.8-1.3,1.4-2.8,1.5-4.7C69.2,23.1,68.7,21.8,68,20.9z"/>
	<path class="st11" d="M45,74.8c-0.4,1.6-2.4,2.4-4.7,3.2c-1.4,0.4-5-0.2-6.3-2.3c-0.8-1.3-2.5-3.1-1.6-4.6c0.7-0.8,1.4,0.2,2,1.2
		c0.5,1.1,1.4,2,2.1,2.6c1.5,1.6,5,0.4,6.8-1.1C44.1,73,45.2,73.2,45,74.8z"/>
	<path class="st11" d="M57,45.2c2.4,4.6,3.5,11.7,0.4,16.2c-4.7,5.8-11.6,8.5-18.5,7.4c-9.9-2.1-14.6-9.2-14.8-15.1
		c0.3-7.5,3.8-11.8,8.8-14.6C38.7,35.6,52.3,37,57,45.2z"/>
	<path class="st12" d="M41.6,44.7c-4.4-0.3-10.3,0.4-14.2,2.1c4.5-6.7,10.1-8,17.6-7.2C45,39.7,43,42,41.6,44.7z"/>
	<path class="st13" d="M57.6,52.5c-4.1-3.9-8.4-5.9-13.3-7.1c0.7-1.8,2.2-3.7,3.4-5C52.5,42,56,46.3,57.6,52.5z"/>
	<path class="st14" d="M40.6,46.9c-1.9,6-2.9,13.3-3.5,19.3c-5.8-1.5-11.9-7-10.7-16.2C30.1,46.5,40.6,46.9,40.6,46.9z"/>
	<path class="st15" d="M57,55.3c-0.4,6.7-7.9,12.4-17.5,11.6c0.5-8.3,2.2-16.1,3.7-19.6C48.1,48.1,54.6,51.5,57,55.3z"/>
	<path class="st11" d="M49.7,57.2c-0.3,1.2-1.1,1.5-1.9,1.4c-2.1-0.6-2-1-1.9-2.2c0.2-1.3,0.5-1.9,1.5-1.9
		C49.4,55.1,49.8,55.8,49.7,57.2z M35.9,53.5c0,0.7-0.8,1.6-1.8,1.5c-1.4-0.1-2.5-1.2-2.1-2.5c0.3-0.9,1.1-1.3,2.2-1.2
		C35.2,51.6,35.9,52.2,35.9,53.5z"/>
	<path class="st0" d="M569,85h-33.2V26.8h8.5v49.7H569V85z M529.7,85H491V26.8h37.3v7.9h-28.7v14.5h20.9v8h-20.9V77h30.1V85z
		 M482.5,26.8L461,85h-8l-21.6-58.1h8.7L457,72.4l16.7-45.6H482.5z M423.6,62.9l-8.7-23.6l-8.7,23.6H423.6z M440.4,85l-8.8,0
		l-5.1-13.9h-23.3L398,85l-8.8,0l21.6-58.1h8L440.4,85z M369.1,43.6c0-2.3-0.8-4.3-2.5-5.9c-1.7-1.6-3.6-2.4-6-2.4h-10.1v16.7h10.1
		c2.3,0,4.3-0.8,6-2.5C368.3,47.8,369.1,45.8,369.1,43.6z M385.8,85l-10.6,0l-17.1-25.1h-7.5V85H342V26.8h18.7
		c4.6,0,8.6,1.6,11.9,4.8c3.3,3.2,4.9,7.1,4.9,11.7c0,3.3-0.9,6.3-2.7,9c-1.8,2.7-4.2,4.7-7.2,6L385.8,85z M335.6,34.7h-18.3V85
		h-8.6V34.7H290v-7.9h45.6V34.7z"/>
	<path class="st16" d="M278.8,26.8V85h-15.6V26.8H278.8z M252.1,27.9v13.8c-10.4-0.6-31.7-2.1-31.7,13.3c0,12.6,5.9,15.1,16.4,15.3
		V52.1h15.3v32.1c-13.4,1.6-30,1.5-38.4-6.7c-5.8-5.6-8.5-13.6-8.5-21.7c0-8,2-14.7,7.8-20.4C222.6,25.9,238.8,26,252.1,27.9z
		 M120.6,26.8h-15.8v37.5c0,6.1,1,11.2,4.1,15c4.3,5.4,10.9,6.2,20.5,5.3l0-13.4c-4.2,0-8.7,0.9-8.7-6.9V26.8z M166.2,41.4
		c-4.1,0-7.6,1.4-10.6,4.3c-2.9,2.8-4.4,6.3-4.4,10.3c0,3.9,1.5,7.3,4.4,10.1c2.9,2.8,6.5,4.3,10.6,4.3c4.1,0,7.6-1.4,10.6-4.3
		c2.9-2.8,4.3-6.2,4.3-10.1c0-4-1.4-7.4-4.3-10.3C173.9,42.8,170.4,41.4,166.2,41.4z M166.1,26.8c8.4,0,15.5,2.8,21.3,8.5
		c5.9,5.7,8.8,12.5,8.8,20.6c0,8-2.9,14.9-8.8,20.5c-5.9,5.7-13,8.5-21.3,8.5c-8.3,0-15.4-2.9-21.2-8.5c-5.9-5.6-8.9-12.5-8.9-20.5
		c0-8,3-14.9,8.9-20.6C150.7,29.7,157.8,26.8,166.1,26.8z"/>
</g>
</svg>
