<?xml version="1.0" standalone="no"?>
<!DOCTYPE svg PUBLIC "-//W3C//DTD SVG 20010904//EN"
 "http://www.w3.org/TR/2001/REC-SVG-20010904/DTD/svg10.dtd">
<svg version="1.0" xmlns="http://www.w3.org/2000/svg"
 width="500.000000pt" height="500.000000pt" viewBox="0 0 500.000000 500.000000"
 preserveAspectRatio="xMidYMid meet">

<g transform="translate(0.000000,500.000000) scale(0.100000,-0.100000)"
fill="#000000" stroke="none">
<path d="M60 2500 l0 -2430 2435 0 2435 0 0 2430 0 2430 -2435 0 -2435 0 0
-2430z m4760 5 l0 -2325 -2325 0 -2325 0 0 2325 0 2325 2325 0 2325 0 0 -2325z"/>
<path d="M550 1125 l0 -625 115 0 115 0 0 410 c0 226 3 410 8 410 4 0 78 -138
166 -306 l158 -305 65 3 65 3 156 302 c86 166 160 303 165 303 4 0 7 -184 7
-410 l0 -410 120 0 120 0 0 625 0 626 -131 -3 -132 -3 -183 -349 c-101 -191
-185 -350 -187 -353 -3 -2 -87 156 -188 351 l-184 356 -127 0 -128 0 0 -625z"/>
<path d="M3690 1299 c0 -24 23 -21 28 4 2 10 -3 17 -12 17 -10 0 -16 -9 -16
-21z"/>
<path d="M4572 1168 l3 -153 33 -3 c37 -4 42 9 10 23 -22 10 -23 16 -26 148
-1 82 -7 137 -13 137 -6 0 -9 -56 -7 -152z"/>
<path d="M3380 1233 c-8 -3 -25 -15 -37 -26 l-23 -20 0 21 c0 13 -6 22 -15 22
-12 0 -15 -19 -15 -110 0 -91 3 -110 15 -110 12 0 15 15 15 74 0 91 23 129 73
124 43 -4 57 -36 57 -125 0 -100 17 -92 22 10 5 92 -7 131 -44 141 -26 7 -27
7 -48 -1z"/>
<path d="M3530 1233 c-21 -8 -50 -34 -50 -45 0 -5 10 -2 22 6 31 22 75 20 88
-3 5 -11 10 -56 10 -100 0 -65 3 -81 15 -81 12 0 15 14 15 68 0 130 -32 180
-100 155z"/>
<path d="M3824 1221 c-89 -54 -51 -211 51 -211 18 0 44 9 59 21 l26 20 0 -35
c0 -50 -28 -76 -83 -76 -23 0 -53 7 -65 16 -31 22 -39 11 -11 -15 17 -15 36
-21 72 -21 97 0 117 35 117 200 0 91 -3 110 -15 110 -9 0 -15 -9 -15 -22 0
-13 -4 -18 -8 -12 -13 19 -56 44 -77 44 -11 0 -34 -9 -51 -19z m113 -33 c35
-32 33 -109 -3 -137 -37 -29 -70 -26 -105 8 -36 36 -39 86 -8 125 27 34 82 36
116 4z"/>
<path d="M4365 1231 c-80 -33 -94 -158 -22 -201 45 -28 99 -26 134 5 31 27 13
35 -21 10 -24 -18 -75 -19 -97 -2 -15 11 -39 49 -39 61 0 3 43 6 95 6 l95 0 0
28 c0 67 -81 119 -145 93z m96 -40 c50 -51 41 -61 -56 -61 -97 0 -106 10 -56
61 38 38 74 38 112 0z"/>
<path d="M3690 1120 c0 -91 3 -110 15 -110 12 0 15 19 15 110 0 91 -3 110 -15
110 -12 0 -15 -19 -15 -110z"/>
<path d="M4052 1141 c2 -70 7 -93 22 -110 27 -29 77 -27 115 4 l30 26 3 -22
c2 -13 9 -25 17 -27 10 -4 12 1 8 19 -4 13 -7 63 -7 112 0 51 -4 87 -10 87 -6
0 -10 -30 -10 -71 0 -65 -2 -73 -29 -100 -34 -33 -70 -37 -94 -11 -13 14 -17
38 -17 100 0 69 -3 82 -16 82 -14 0 -15 -13 -12 -89z"/>
<path d="M3650 565 c0 -97 4 -155 10 -155 6 0 10 15 10 33 0 23 8 41 26 58
l26 24 24 -30 c14 -16 32 -42 42 -57 9 -16 22 -28 29 -28 19 0 17 4 -32 72
l-46 61 43 44 c24 24 36 43 28 43 -8 0 -43 -28 -77 -62 l-63 -62 0 107 c0 65
-4 107 -10 107 -6 0 -10 -58 -10 -155z"/>
<path d="M4140 670 c0 -29 -4 -40 -15 -40 -8 0 -15 -4 -15 -10 0 -5 7 -10 15
-10 12 0 15 -17 15 -89 0 -65 4 -92 14 -100 19 -16 68 -10 74 8 3 10 0 12 -12
8 -38 -15 -46 1 -46 89 0 83 0 84 25 84 14 0 25 5 25 10 0 6 -11 10 -25 10
-22 0 -25 4 -25 40 0 29 -4 40 -15 40 -11 0 -15 -11 -15 -40z"/>
<path d="M2928 624 c-16 -8 -28 -19 -28 -24 0 -6 -4 -10 -10 -10 -5 0 -10 9
-10 20 0 11 -4 20 -10 20 -6 0 -10 -43 -10 -110 0 -91 3 -110 15 -110 12 0 15
15 15 78 0 69 3 81 23 100 26 24 66 29 85 10 8 -8 12 -45 12 -100 0 -72 3 -88
15 -88 12 0 15 15 15 74 0 87 22 126 70 126 45 0 60 -31 60 -122 0 -45 4 -78
10 -78 6 0 10 38 10 95 0 83 -3 98 -21 116 -25 25 -71 20 -105 -12 l-22 -20
-25 25 c-30 29 -50 32 -89 10z"/>
<path d="M3291 625 c-44 -20 -33 -31 14 -14 49 18 89 -2 93 -47 l3 -31 -53 5
c-43 3 -58 0 -80 -18 -54 -42 -23 -110 50 -110 21 0 47 7 58 15 25 19 34 19
34 0 0 -8 6 -15 14 -15 11 0 13 13 10 63 -8 99 -13 123 -32 141 -27 23 -72 28
-111 11z m78 -101 c26 -5 31 -11 31 -35 0 -17 -8 -34 -22 -43 -28 -20 -82 -21
-98 -2 -18 22 -8 59 20 73 29 15 28 15 69 7z"/>
<path d="M3923 624 c-33 -16 -63 -66 -63 -104 0 -29 26 -76 52 -94 12 -9 37
-16 56 -16 34 0 92 24 92 39 0 18 -13 19 -33 0 -30 -27 -82 -25 -112 6 -47 46
-36 55 70 55 89 0 95 1 95 20 0 37 -30 81 -65 96 -43 18 -52 17 -92 -2z m81
-14 c25 -9 60 -62 49 -74 -4 -3 -42 -6 -85 -6 -70 0 -78 2 -78 19 0 21 53 71
75 71 8 0 25 -4 39 -10z"/>
<path d="M4323 624 c-33 -16 -63 -66 -63 -104 0 -29 26 -76 52 -94 12 -9 37
-16 56 -16 34 0 92 24 92 39 0 18 -13 19 -33 0 -30 -27 -82 -25 -112 6 -47 46
-36 55 70 55 89 0 95 1 95 20 0 37 -30 81 -65 96 -43 18 -52 17 -92 -2z m81
-14 c25 -9 60 -62 49 -74 -4 -3 -42 -6 -85 -6 -70 0 -78 2 -78 19 0 21 53 71
75 71 8 0 25 -4 39 -10z"/>
<path d="M3500 520 c0 -67 4 -110 10 -110 6 0 10 31 10 74 0 66 3 76 26 100
15 14 35 26 45 26 11 0 19 5 19 10 0 18 -43 10 -67 -12 l-23 -21 0 21 c0 12
-4 22 -10 22 -6 0 -10 -43 -10 -110z"/>
<path d="M4530 520 c0 -67 4 -110 10 -110 6 0 10 30 10 71 0 65 2 73 29 100
16 16 37 29 45 29 9 0 16 5 16 10 0 17 -36 11 -64 -11 l-26 -20 0 20 c0 12 -4
21 -10 21 -6 0 -10 -43 -10 -110z"/>
</g>
</svg>
